<svg xmlns="http://www.w3.org/2000/svg" viewBox="0 0 200 200" fill="none">
  <path d="M28 68 L28 132 L70 162 L70 38 Z" fill="#2152cc"/>
  <path d="M172 68 L172 132 L130 162 L130 38 Z" fill="#2152cc"/>
  <path d="M70 36 L100 20 L130 36 L130 164 L100 180 L70 164 Z" fill="#4a7fd4"/>
  <rect x="98" y="72" width="4" height="80" rx="2" fill="white"/>
  <path d="M96.5 72 Q100 63 103.5 72" fill="white"/>
  <path d="M50 94 Q100 87 150 94" stroke="white" stroke-width="3.5" stroke-linecap="round" fill="none"/>
  <circle cx="54" cy="94" r="3.5" fill="white"/>
  <circle cx="146" cy="94" r="3.5" fill="white"/>
  <line x1="54" y1="97" x2="48" y2="116" stroke="white" stroke-width="2.2" stroke-linecap="round"/>
  <line x1="66" y1="97" x2="72" y2="116" stroke="white" stroke-width="2.2" stroke-linecap="round"/>
  <path d="M46 116 Q59 112 74 116" stroke="white" stroke-width="2.5" stroke-linecap="round" fill="none"/>
  <line x1="146" y1="97" x2="140" y2="116" stroke="white" stroke-width="2.2" stroke-linecap="round"/>
  <line x1="134" y1="97" x2="128" y2="116" stroke="white" stroke-width="2.2" stroke-linecap="round"/>
  <path d="M126 116 Q139 112 154 116" stroke="white" stroke-width="2.5" stroke-linecap="round" fill="none"/>
  <ellipse cx="100" cy="152" rx="13" ry="4.5" fill="white" opacity="0.9"/>
</svg>
